<svg width="55" height="54" viewBox="0 0 55 54" fill="none" xmlns="http://www.w3.org/2000/svg">
<path d="M53.6452 32.2983C53.979 30.6187 54.1541 28.8821 54.1541 27.1048C54.1541 25.3275 53.979 23.5909 53.6452 21.9113L51.0297 22.4312C51.3297 23.9406 51.4874 25.503 51.4874 27.1048C51.4874 28.7066 51.3297 30.2691 51.0297 31.7784L53.6452 32.2983Z" fill="#272A37"/>
<path d="M49.654 12.3255C47.706 9.42931 45.2017 6.93626 42.2936 4.99835L40.8148 7.21745C43.4332 8.96229 45.688 11.2072 47.4413 13.8138L49.654 12.3255Z" fill="#272A37"/>
<path d="M32.6941 1.03762C31.0141 0.706815 29.2774 0.533386 27.5 0.533386C25.7226 0.533386 23.9859 0.706815 22.3059 1.03762L22.8211 3.65405C24.3323 3.35648 25.8965 3.20005 27.5 3.20005C29.1035 3.20005 30.6677 3.35648 32.1789 3.65405L32.6941 1.03762Z" fill="#272A37"/>
<path d="M12.7065 4.99836C9.79834 6.93626 7.29404 9.42931 5.34606 12.3255L7.55877 13.8138C9.31199 11.2072 11.5668 8.96229 14.1852 7.21745L12.7065 4.99836Z" fill="#272A37"/>
<path d="M0.845947 27.1048C0.845947 25.3275 1.02099 23.591 1.35482 21.9113L3.97032 22.4312C3.67033 23.9406 3.51261 25.503 3.51261 27.1048C3.51261 28.7066 3.67033 30.2691 3.97032 31.7784L1.35482 32.2983C1.02099 30.6187 0.845947 28.8821 0.845947 27.1048Z" fill="#272A37"/>
<path d="M5.34606 41.8842C7.29404 44.7803 9.79834 47.2734 12.7065 49.2113L14.1852 46.9922C11.5668 45.2473 9.31199 43.0025 7.55877 40.3959L5.34606 41.8842Z" fill="#272A37"/>
<path d="M22.3059 53.172C23.9859 53.5028 25.7226 53.6763 27.5 53.6763C29.2774 53.6763 31.0141 53.5028 32.6941 53.172L32.1789 50.5556C30.6677 50.8532 29.1035 51.0096 27.5 51.0096C25.8965 51.0096 24.3323 50.8532 22.8211 50.5556L22.3059 53.172Z" fill="#272A37"/>
<path d="M42.2936 49.2113C45.2017 47.2734 47.706 44.7803 49.654 41.8842L47.4413 40.3959C45.688 43.0025 43.4332 45.2473 40.8148 46.9922L42.2936 49.2113Z" fill="#272A37"/>
<path fill-rule="evenodd" clip-rule="evenodd" d="M43.4927 27.1049C43.4927 35.9099 36.3326 43.0478 27.5002 43.0478C18.6679 43.0478 11.5078 35.9099 11.5078 27.1049C11.5078 18.2999 18.6679 11.162 27.5002 11.162C36.3326 11.162 43.4927 18.2999 43.4927 27.1049ZM40.826 27.1049C40.826 34.4294 34.8677 40.3811 27.5002 40.3811C20.1328 40.3811 14.1745 34.4294 14.1745 27.1049C14.1745 19.7805 20.1328 13.8287 27.5002 13.8287C34.8677 13.8287 40.826 19.7805 40.826 27.1049Z" fill="#272A37"/>
</svg>
