<svg width="75" height="54" viewBox="0 0 75 54" fill="none" xmlns="http://www.w3.org/2000/svg">
<path fill-rule="evenodd" clip-rule="evenodd" d="M4.4072 23.1482L22.8723 4.74026C24.9584 2.6607 28.3405 2.6607 30.4265 4.74026L38.5158 12.8044L40.4043 10.9218L32.315 2.85758C29.186 -0.261765 24.1128 -0.261773 20.9838 2.85757L2.51866 21.2655C-0.610382 24.3848 -0.610388 29.4422 2.51865 32.5616L20.9838 50.9695C24.1128 54.0888 29.186 54.0888 32.315 50.9695L40.4043 42.9053L38.5158 41.0226L30.4265 49.0868C28.3405 51.1664 24.9584 51.1664 22.8723 49.0868L4.4072 30.6789C2.32117 28.5993 2.32117 25.2277 4.4072 23.1482Z" fill="#272A37"/>
<rect x="1.88854" width="29.3241" height="29.3241" rx="6.66667" transform="matrix(0.708204 -0.706008 0.708204 0.706008 29.3887 28.2468)" stroke="#272A37" stroke-width="2.66667"/>
</svg>
