<svg width="53" height="54" viewBox="0 0 53 54" fill="none" xmlns="http://www.w3.org/2000/svg">
<path d="M25.3314 2.76951C25.8376 1.84683 27.1631 1.84683 27.6693 2.76952L35.3217 16.718C35.6897 17.3886 36.2422 17.9397 36.9138 18.3059L50.8874 25.9246C51.8142 26.4299 51.8141 27.7606 50.8874 28.2659L36.9138 35.8846C36.2422 36.2508 35.6897 36.8019 35.3217 37.4726L27.6693 51.421C27.1631 52.3437 25.8376 52.3437 25.3314 51.421L17.679 37.4726C17.3111 36.8019 16.7585 36.2508 16.0869 35.8846L2.11335 28.2659C1.18658 27.7606 1.18659 26.4299 2.11334 25.9246L16.0869 18.3059C16.7585 17.9397 17.3111 17.3886 17.679 16.718L25.3314 2.76951Z" stroke="#272A37" stroke-width="2.66667"/>
</svg>
