<svg width="54" height="54" viewBox="0 0 54 54" fill="none" xmlns="http://www.w3.org/2000/svg">
<path d="M47.3935 28.8751V29.474L47.8413 29.8719L51.5475 33.1646L51.5581 33.1741L51.569 33.1833C52.0184 33.5657 52.3097 34.0813 52.4034 34.6378C52.4969 35.1939 52.3893 35.7665 52.0936 36.2595L52.0936 36.2595L52.0873 36.2701L47.6202 43.877C47.6196 43.878 47.6191 43.8789 47.6185 43.8798C47.396 44.2527 47.0737 44.5673 46.6799 44.7882C46.2849 45.0099 45.8338 45.1282 45.3723 45.1287L45.3637 45.1287C45.0797 45.1308 44.7977 45.0882 44.5289 45.003C44.5273 45.0025 44.5256 45.002 44.524 45.0015L39.7897 43.4443L39.188 43.2465L38.6544 43.5879C37.874 44.0873 37.06 44.5362 36.218 44.9315L35.6153 45.2145L35.4794 45.8663L34.4793 50.6627L34.4783 50.6676C34.3637 51.2275 34.0481 51.7391 33.5762 52.1079C33.1033 52.4774 32.5056 52.6777 31.8874 52.6662L31.875 52.6659H31.8626H22.6069H22.5945L22.5821 52.6662C21.9639 52.6777 21.3662 52.4774 20.8934 52.1079C20.4214 51.7391 20.1058 51.2275 19.9913 50.6676L19.9902 50.6627L18.9902 45.8663L18.8547 45.2168L18.255 44.9331C17.4195 44.538 16.6123 44.0894 15.8387 43.5905L15.3048 43.2461L14.701 43.4438L9.94555 45.0015C9.94416 45.0019 9.94277 45.0023 9.94139 45.0028C9.67234 45.0882 9.39007 45.1308 9.10581 45.1287L9.09722 45.1287C8.63574 45.1282 8.18466 45.0099 7.78962 44.7882L7.13722 45.951L7.78962 44.7882C7.39481 44.5667 7.07189 44.2511 6.84937 43.877L6.84942 43.877L6.84279 43.8661L2.21493 36.2527L2.21498 36.2527L2.20823 36.2418C1.89883 35.7436 1.78371 35.1604 1.8776 34.5936C1.97157 34.0263 2.27084 33.5013 2.73316 33.116L2.74192 33.1087L2.75056 33.1013L6.45677 29.9037L6.91911 29.5048V28.8941V25.982V25.383L6.47135 24.9852L2.76514 21.6924L2.75451 21.683L2.74368 21.6738C2.29428 21.2914 2.00295 20.7758 1.90929 20.2193C1.8159 19.6643 1.92295 19.0929 2.21726 18.6005C2.21785 18.5995 2.21845 18.5986 2.21904 18.5976L6.84279 10.991L6.84284 10.991L6.84937 10.98C7.07189 10.606 7.39481 10.2904 7.78962 10.0689C8.18466 9.84723 8.63575 9.72886 9.09722 9.7284L9.14053 9.72836L9.18374 9.72551C9.44858 9.70802 9.71433 9.72961 9.97173 9.78925L14.5767 11.4043L15.1896 11.6193L15.7367 11.2692C16.5171 10.7698 17.331 10.3209 18.1731 9.92558L18.7758 9.64261L18.9117 8.9908L19.9118 4.19436L19.9128 4.18951C20.0274 3.62955 20.3429 3.11797 20.8149 2.74918C21.2878 2.37973 21.8855 2.17942 22.5037 2.19092L22.5161 2.19115H22.5285H31.7057H31.7181L31.7305 2.19092C32.3487 2.17942 32.9464 2.37973 33.4193 2.74918C33.8913 3.11797 34.2068 3.62955 34.3214 4.18952L34.3224 4.19436L35.3225 8.9908L35.4579 9.64029L36.0577 9.92396C36.8932 10.3191 37.7003 10.7677 38.4739 11.2666L39.0078 11.611L39.6116 11.4132L44.3671 9.85563C44.3686 9.85515 44.3701 9.85468 44.3716 9.8542C44.6405 9.7689 44.9227 9.72625 45.2068 9.7284L45.2154 9.7284C45.6769 9.72886 46.128 9.84723 46.523 10.0689C46.9178 10.2904 47.2408 10.606 47.4633 10.98L47.4632 10.9801L47.4699 10.991L52.0977 18.6044L52.1045 18.6156L52.1116 18.6267C52.4256 19.121 52.5468 19.7019 52.4599 20.2683C52.3729 20.8346 52.0816 21.361 51.6267 21.7508C51.6262 21.7513 51.6257 21.7517 51.6251 21.7522L47.8638 24.9467L47.3935 25.346V25.963V27.4285V28.8751Z" stroke="#272A37" stroke-width="2.66667"/>
</svg>
