<svg width="14" height="23" viewBox="0 0 14 23" fill="none" xmlns="http://www.w3.org/2000/svg">
<path fill-rule="evenodd" clip-rule="evenodd" d="M1.82632 15.6604C1.14152 15.3532 0.666504 14.6902 0.666504 13.9214C0.666504 12.8612 1.56858 12.001 2.67895 12.001C3.0131 12.001 3.32779 12.0796 3.6065 12.2168C4.73185 12.7426 5.99655 13.037 7.33318 13.037C8.67281 13.037 9.939 12.7412 11.0673 12.2139C11.3431 12.0782 11.6562 12.001 11.9874 12.001C13.0978 12.001 13.9998 12.8612 13.9998 13.9214C13.9998 14.6902 13.5233 15.356 12.837 15.6618C12.0788 16.0176 11.2756 16.3019 10.4395 16.5048L13.1892 19.4769C13.9249 20.2713 13.8455 21.4859 13.0124 22.1874C12.1792 22.8876 10.9055 22.8118 10.1698 22.0174L7.33167 18.951L4.49358 22.0174C3.75784 22.8118 2.48414 22.8876 1.65099 22.1874C0.817845 21.4859 0.738432 20.2713 1.47418 19.4769L4.22385 16.5048C3.38771 16.3005 2.58604 16.0162 1.82632 15.6604ZM7.33318 0C10.7347 0 13.4979 2.63483 13.4979 5.87835C13.4979 9.12188 10.7347 11.7567 7.33318 11.7567C3.93167 11.7567 1.1685 9.12188 1.1685 5.87835C1.1685 2.63483 3.93167 0 7.33318 0ZM7.33318 3.57073C8.66831 3.57073 9.75319 4.60523 9.75319 5.87835C9.75319 7.15147 8.66831 8.18597 7.33318 8.18597C5.99805 8.18597 4.91315 7.15147 4.91315 5.87835C4.91315 4.60523 5.99805 3.57073 7.33318 3.57073Z" fill="#3D48A9"/>
</svg>
