<svg width="30" height="16" viewBox="0 0 30 16" fill="none" xmlns="http://www.w3.org/2000/svg">
<path fill-rule="evenodd" clip-rule="evenodd" d="M24.3671 7.84458C24.3671 7.84458 28.2336 2.76516 28.6167 1.0965C28.7451 0.500427 28.4627 0.167378 27.7972 0.167378C27.7972 0.167378 25.5716 0.167378 24.4441 0.167378C23.6759 0.167378 23.3954 0.476515 23.1644 0.92912C23.1644 0.92912 21.3512 4.52775 19.1457 6.7959C18.4381 7.52861 18.0788 7.74893 17.6864 7.74893C17.3711 7.74893 17.2262 7.5047 17.2262 6.84372V1.04868C17.2262 0.239112 17.1236 0 16.4068 0H11.0333C10.6226 0 10.3659 0.222033 10.3659 0.524338C10.3659 1.28779 11.6218 1.46029 11.6218 3.52861V7.79675C11.6218 8.65585 11.5704 8.9889 11.1341 8.9889C9.98274 8.9889 7.24376 5.29291 5.70742 1.0965C5.40126 0.239112 5.06757 0 4.19857 0H0.845408C0.357741 0 0.000244141 0.309137 0.000244141 0.763449C0.000244141 1.59692 1.04892 5.46029 5.17026 10.6354C7.93492 14.1161 11.5704 16 14.8466 16C16.8431 16 17.3289 15.6909 17.3289 14.9035V12.2323C17.3289 11.5645 17.6112 11.2792 18.0201 11.2792C18.4802 11.2792 19.2942 11.4159 21.1936 13.1631C23.4467 15.1648 23.6007 16 24.8291 16H28.5911C28.9761 16 29.3336 15.8326 29.3336 15.2365C29.3336 14.4509 28.2336 13.0436 26.5432 11.3749C25.8521 10.5158 24.7264 9.58497 24.3671 9.15628C23.8556 8.65585 24.0096 8.36892 24.3671 7.84458Z" fill="#3D48A9"/>
</svg>
