<svg width="27" height="28" viewBox="0 0 27 28" fill="none" xmlns="http://www.w3.org/2000/svg">
<path fill-rule="evenodd" clip-rule="evenodd" d="M19.5335 0.66683H7.80018C3.67851 0.66683 0.333496 4.01183 0.333496 8.1335V19.8668C0.333496 23.9885 3.67851 27.3335 7.80018 27.3335H19.5335C23.6551 27.3335 27.0002 23.9885 27.0002 19.8668V8.1335C27.0002 4.01183 23.6551 0.66683 19.5335 0.66683ZM19.4668 24.0002H7.86681C5.54848 24.0002 3.66683 22.1185 3.66683 19.8002V8.20016C3.66683 5.88183 5.54848 4.00016 7.86681 4.00016H19.4668C21.7852 4.00016 23.6668 5.88183 23.6668 8.20016V19.8002C23.6668 22.1185 21.7852 24.0002 19.4668 24.0002ZM20.3335 9.00016C21.2535 9.00016 22.0002 8.2535 22.0002 7.3335C22.0002 6.4135 21.2535 5.66683 20.3335 5.66683C19.4135 5.66683 18.6668 6.4135 18.6668 7.3335C18.6668 8.2535 19.4135 9.00016 20.3335 9.00016ZM13.6668 20.6668C17.3468 20.6668 20.3335 17.6802 20.3335 14.0002C20.3335 10.3202 17.3468 7.3335 13.6668 7.3335C9.98683 7.3335 7.00016 10.3202 7.00016 14.0002C7.00016 17.6802 9.98683 20.6668 13.6668 20.6668ZM13.6668 17.3335C15.5068 17.3335 17.0002 15.8402 17.0002 14.0002C17.0002 12.1602 15.5068 10.6668 13.6668 10.6668C11.8268 10.6668 10.3335 12.1602 10.3335 14.0002C10.3335 15.8402 11.8268 17.3335 13.6668 17.3335Z" fill="#3D48A9"/>
</svg>
