<svg width="26" height="22" viewBox="0 0 26 22" fill="none" xmlns="http://www.w3.org/2000/svg">
<path d="M1.8864 9.95722C1.8864 9.95722 13.0907 5.27416 16.9766 3.62513C18.4662 2.96558 23.5178 0.854822 23.5178 0.854822C23.5178 0.854822 25.8494 -0.0685542 25.6551 2.17402C25.5903 3.09749 25.0722 6.32944 24.5541 9.82531C23.7769 14.7723 22.9349 20.1809 22.9349 20.1809C22.9349 20.1809 22.8054 21.698 21.7044 21.9618C20.6035 22.2257 18.79 21.0385 18.4662 20.7746C18.2071 20.5767 13.6088 17.6085 11.9249 16.1574C11.4716 15.7617 10.9535 14.9702 11.9897 14.0467C14.3212 11.8701 17.1061 9.16576 18.79 7.45082C19.5672 6.65927 20.3443 4.81242 17.1061 7.055C12.5078 10.287 7.97429 13.3212 7.97429 13.3212C7.97429 13.3212 6.93802 13.9807 4.9951 13.3871C3.05209 12.7935 0.785324 12.002 0.785324 12.002C0.785324 12.002 -0.768941 11.0126 1.8864 9.95722Z" fill="#3D48A9"/>
</svg>
