<svg width="22" height="21" viewBox="0 0 22 21" fill="none" xmlns="http://www.w3.org/2000/svg">
<path d="M21.1436 1.1448C20.7836 0.839522 20.2182 0.795843 19.6336 1.03056H19.6326C19.0177 1.27728 2.22733 8.4792 1.54381 8.77344C1.41949 8.81664 0.333728 9.22176 0.445568 10.1242C0.545408 10.9378 1.41805 11.2747 1.52461 11.3136L5.79325 12.7752C6.07645 13.7179 7.12045 17.196 7.35133 17.939C7.49533 18.4022 7.73005 19.0109 8.14141 19.1362C8.50237 19.2754 8.86141 19.1482 9.09373 18.9658L11.7035 16.5451L15.9164 19.8307L16.0168 19.8907C16.3028 20.0174 16.5769 20.0808 16.8385 20.0808C17.0406 20.0808 17.2345 20.0429 17.4198 19.967C18.051 19.7078 18.3035 19.1064 18.3299 19.0382L21.4768 2.68128C21.6688 1.80768 21.4019 1.3632 21.1436 1.1448ZM9.55789 13.3598L8.11789 17.1998L6.67789 12.3998L17.7179 4.23984L9.55789 13.3598Z" fill="#142664"/>
</svg>
