<svg width="25" height="22" viewBox="0 0 25 22" fill="none" xmlns="http://www.w3.org/2000/svg">
<path fill-rule="evenodd" clip-rule="evenodd" d="M0.333252 10.6665C0.333252 7.905 0.829152 5.46885 1.5823 4.03245C1.94275 3.15945 2.5519 2.41635 3.32065 1.8933C4.7008 0.884404 8.2174 0.166504 12.3333 0.166504C16.4491 0.166504 19.9657 0.884404 21.3459 1.8933C22.1146 2.41635 22.7238 3.15945 23.0842 4.03245C23.8374 5.4687 24.3333 7.905 24.3333 10.6665C24.3333 13.428 23.8374 15.8642 23.0842 17.3006C22.7238 18.1736 22.1146 18.9167 21.3459 19.4397C19.9657 20.4486 16.4491 21.1665 12.3333 21.1665C8.2174 21.1665 4.7008 20.4486 3.32065 19.4397C2.5519 18.9167 1.94275 18.1736 1.5823 17.3006C0.829152 15.8642 0.333252 13.428 0.333252 10.6665ZM10.5823 15.0119C10.452 15.1089 10.2904 15.1665 10.1155 15.1665C9.6838 15.1665 9.33325 14.816 9.33325 14.3843V6.94875C9.33325 6.51705 9.6838 6.1665 10.1155 6.1665C10.2907 6.1665 10.4524 6.22425 10.5829 6.3216L16.4785 9.9855L16.4761 9.9906C16.6917 10.1381 16.8333 10.3859 16.8333 10.6665C16.8333 10.9472 16.6917 11.195 16.4761 11.3424L16.4785 11.3475L10.5823 15.0119Z" fill="#3D48A9"/>
</svg>
