<svg width="213" height="66" viewBox="0 0 213 66" fill="none" xmlns="http://www.w3.org/2000/svg">
<path d="M28.7197 65.9204L56.7723 56.3521V31.9888H28.7197V65.9204Z" fill="#365FF6"/>
<path d="M56.7786 0.666992L42.7492 6.43939L28.7197 0.666992V31.9885H56.7723V0.666992H56.7786Z" fill="#2848BA"/>
<path d="M28.7196 65.9204L0.666992 56.3521V31.9888H28.7196V65.9204Z" fill="#2848BA"/>
<path d="M28.7194 0.666992L14.6962 6.43939L0.666748 0.666992V31.9885H28.7194V0.666992Z" fill="#365FF6"/>
<path fill-rule="evenodd" clip-rule="evenodd" d="M35.6152 48.2013L28.7197 41.3999L21.9058 48.2013H28.7197H35.6152Z" fill="white"/>
<path fill-rule="evenodd" clip-rule="evenodd" d="M16.9111 17.4321V28.5879C16.9111 34.994 22.2192 40.2959 28.801 40.2959C35.3765 40.2959 40.6909 35.0756 40.6909 28.5879V17.4321H16.9111Z" fill="white"/>
<path fill-rule="evenodd" clip-rule="evenodd" d="M41.7952 31.9892H45.1206L48.5275 21.7056H45.2021L41.7952 31.9892Z" fill="white"/>
<path fill-rule="evenodd" clip-rule="evenodd" d="M15.6437 31.9892H12.3935L8.98657 21.7056H12.2367L15.6437 31.9892Z" fill="white"/>
<path d="M88.0814 43.5337V41.2373C86.5755 42.9753 83.9591 44.0043 81.5059 44.0043C75.6394 44.0043 70.8081 39.1793 70.8081 33.4069C70.8081 27.6345 75.6456 22.8096 81.5059 22.8096C83.9591 22.8096 86.5755 23.9139 88.0814 25.5766V23.2801H92.2036V43.5275H88.0814V43.5337ZM75.2441 33.4132C75.2441 37.0523 77.9358 39.8193 81.5874 39.8193C85.3144 39.8193 88.1629 37.2092 88.1629 33.4132C88.1629 29.6172 85.3081 27.0071 81.5874 27.0071C77.9358 27.0071 75.2441 29.7741 75.2441 33.4132Z" fill="white"/>
<path d="M101.552 14.9849V43.5394H97.4299V14.9849H101.552Z" fill="white"/>
<path d="M110.826 14.9849V43.5394H106.703V14.9849H110.826Z" fill="white"/>
<path d="M135.471 44.0102C129.686 44.0102 124.774 39.1036 124.774 33.4128C124.774 27.5588 129.611 22.8154 135.471 22.8154C139.437 22.8154 142.605 24.7919 144.425 27.6404L141.256 30.0121C139.832 28.1925 137.849 27.0883 135.471 27.0883C132.064 27.0883 129.134 30.0121 129.134 33.4944C129.134 36.8951 131.989 39.9005 135.553 39.9005C138.013 39.9005 140.071 38.7146 141.495 36.6566L144.82 38.7146C142.919 41.9522 139.431 44.0102 135.471 44.0102Z" fill="white"/>
<path d="M166.693 23.2856V43.533H162.57V41.3997C161.065 43.0624 158.687 44.0914 156.785 44.0914C150.844 44.0914 147.907 40.5338 147.907 35.3136V23.2856H152.105V34.912C152.105 37.8359 154.163 39.8938 157.018 39.8938C160.268 39.8938 162.564 37.2021 162.564 34.5167V23.2856H166.693Z" fill="white"/>
<path d="M171.85 23.286H175.972V25.5009C177.478 23.8382 180.094 22.7339 182.548 22.7339C188.489 22.7339 193.327 27.6404 193.327 33.3313C193.327 39.1852 188.496 43.9286 182.548 43.9286C180.088 43.9286 177.478 42.8244 175.972 41.1616V50.5732H171.85V23.286ZM175.966 33.4128C175.966 37.2088 178.821 39.8189 182.541 39.8189C186.268 39.8189 188.878 36.9704 188.878 33.4128C188.878 29.8553 186.262 27.0067 182.541 27.0067C178.821 27.0067 175.966 29.6168 175.966 33.4128Z" fill="white"/>
<path d="M210.205 33.2564C212.263 34.7622 212.74 36.5755 212.658 38.3198C212.502 40.0578 211.548 41.7205 209.967 42.6679C208.461 43.6153 206.24 44.0922 204.025 44.0922C200.536 44.0922 197.054 42.191 195.548 40.6099L198.24 37.3661C200.38 39.3425 202.839 39.8946 204.74 39.8946C206.485 39.8946 208.147 39.2609 208.386 38.1566C208.624 37.0523 207.834 36.2555 205.136 35.6281C202.758 34.9944 199.671 33.9654 198.56 33.1748C197.054 32.0705 196.264 30.7215 196.264 28.902C196.182 27.3208 197.054 25.7397 198.246 24.6291C199.671 23.3617 202.049 22.8096 204.188 22.8096C207.281 22.8911 209.898 23.9954 211.636 25.3381L209.101 28.5004C207.2 27.0761 205.456 26.8377 203.95 26.8377C201.572 26.7561 200.543 27.6283 200.461 28.5004C200.38 29.4478 201.415 30.0815 204.897 31.1105C207.112 31.6752 209.252 32.4658 210.205 33.2564Z" fill="white"/>
</svg>
