<svg width="176" height="55" viewBox="0 0 176 55" fill="none" xmlns="http://www.w3.org/2000/svg">
<path d="M23.8462 54.2524L47.0252 46.346V26.2146H23.8462V54.2524Z" fill="#365FF6"/>
<path d="M47.0304 0.334717L35.4383 5.10428L23.8462 0.334717V26.2148H47.0252V0.334717H47.0304Z" fill="#2848BA"/>
<path d="M23.846 54.2524L0.666992 46.346V26.2146H23.846V54.2524Z" fill="#2848BA"/>
<path d="M23.8463 0.335449L12.2593 5.10501L0.667236 0.335449V26.2155H23.8463V0.335449Z" fill="#365FF6"/>
<path fill-rule="evenodd" clip-rule="evenodd" d="M29.5433 39.6125L23.8457 33.9927L18.2156 39.6125H23.8457H29.5433Z" fill="white"/>
<path fill-rule="evenodd" clip-rule="evenodd" d="M14.0889 14.187V23.4047C14.0889 28.6979 18.4748 33.0786 23.9131 33.0786C29.3463 33.0786 33.7374 28.7653 33.7374 23.4047V14.187H14.0889Z" fill="white"/>
<path fill-rule="evenodd" clip-rule="evenodd" d="M34.6501 26.2149H37.3978L40.2129 17.7178H37.4652L34.6501 26.2149Z" fill="white"/>
<path fill-rule="evenodd" clip-rule="evenodd" d="M13.0418 26.2149H10.3563L7.54126 17.7178H10.2267L13.0418 26.2149Z" fill="white"/>
<path d="M72.8942 35.7539V33.8564C71.65 35.2925 69.4881 36.1427 67.4611 36.1427C62.6137 36.1427 58.6218 32.156 58.6218 27.3864C58.6218 22.6169 62.6189 18.6301 67.4611 18.6301C69.4881 18.6301 71.65 19.5426 72.8942 20.9164V19.0189H76.3003V35.7487H72.8942V35.7539ZM62.2871 27.3916C62.2871 30.3985 64.5112 32.6848 67.5285 32.6848C70.6079 32.6848 72.9616 30.5281 72.9616 27.3916C72.9616 24.2551 70.6028 22.0984 67.5285 22.0984C64.5112 22.0984 62.2871 24.3847 62.2871 27.3916Z" fill="white"/>
<path d="M84.0255 12.165V35.7588H80.6194V12.165H84.0255Z" fill="white"/>
<path d="M91.6876 12.165V35.7588H88.2815V12.165H91.6876Z" fill="white"/>
<path d="M112.051 36.1474C107.271 36.1474 103.212 32.0932 103.212 27.3911C103.212 22.5541 107.209 18.6348 112.051 18.6348C115.328 18.6348 117.946 20.2678 119.449 22.6215L116.831 24.5812C115.654 23.0777 114.016 22.1653 112.051 22.1653C109.236 22.1653 106.815 24.5812 106.815 27.4585C106.815 30.2684 109.174 32.7516 112.119 32.7516C114.151 32.7516 115.851 31.7718 117.028 30.0713L119.776 31.7718C118.205 34.4469 115.323 36.1474 112.051 36.1474Z" fill="white"/>
<path d="M137.849 19.0239V35.7537H134.443V33.991C133.199 35.3649 131.234 36.2151 129.663 36.2151C124.753 36.2151 122.327 33.2756 122.327 28.9622V19.0239H125.795V28.6304C125.795 31.0463 127.496 32.7468 129.855 32.7468C132.54 32.7468 134.438 30.5227 134.438 28.3038V19.0239H137.849Z" fill="white"/>
<path d="M142.111 19.0238H145.517V20.8539C146.761 19.4801 148.923 18.5676 150.95 18.5676C155.859 18.5676 159.856 22.6218 159.856 27.3239C159.856 32.1609 155.865 36.0802 150.95 36.0802C148.918 36.0802 146.761 35.1678 145.517 33.7939V41.5704H142.111V19.0238ZM145.512 27.3913C145.512 30.5278 147.87 32.6845 150.945 32.6845C154.024 32.6845 156.181 30.3308 156.181 27.3913C156.181 24.4518 154.019 22.0981 150.945 22.0981C147.87 22.0981 145.512 24.2548 145.512 27.3913Z" fill="white"/>
<path d="M173.802 27.262C175.503 28.5062 175.897 30.0045 175.829 31.4457C175.7 32.8818 174.912 34.2556 173.605 35.0385C172.361 35.8213 170.526 36.2153 168.696 36.2153C165.813 36.2153 162.936 34.6444 161.692 33.338L163.916 30.6577C165.684 32.2908 167.716 32.747 169.287 32.747C170.728 32.747 172.102 32.2234 172.299 31.3109C172.496 30.3985 171.843 29.7401 169.613 29.2217C167.648 28.6981 165.098 27.8478 164.18 27.1946C162.936 26.2822 162.283 25.1675 162.283 23.6641C162.215 22.3576 162.936 21.0512 163.921 20.1336C165.098 19.0863 167.063 18.6301 168.83 18.6301C171.386 18.6975 173.548 19.61 174.984 20.7194L172.89 23.3323C171.319 22.1555 169.878 21.9585 168.633 21.9585C166.669 21.8911 165.818 22.6117 165.751 23.3323C165.684 24.1151 166.539 24.6387 169.416 25.489C171.246 25.9556 173.014 26.6088 173.802 27.262Z" fill="white"/>
</svg>
