<svg width="32" height="32" viewBox="0 0 32 32" fill="none" xmlns="http://www.w3.org/2000/svg">
<g clip-path="url(#clip0)">
<path d="M3.99984 21.3333H14.6665C15.3998 21.3333 15.9998 20.7333 15.9998 20C15.9998 19.2667 15.3998 18.6667 14.6665 18.6667H3.99984C3.2665 18.6667 2.6665 19.2667 2.6665 20C2.6665 20.7333 3.2665 21.3333 3.99984 21.3333ZM2.6665 13.3333C2.6665 14.0667 3.2665 14.6667 3.99984 14.6667H25.3332C26.0665 14.6667 26.6665 14.0667 26.6665 13.3333C26.6665 12.6 26.0665 12 25.3332 12H3.99984C3.2665 12 2.6665 12.6 2.6665 13.3333Z" fill="#FF2E93"/>
<path d="M5.33333 19.9998H16C16.7333 19.9998 17.3333 19.3998 17.3333 18.6665C17.3333 17.9332 16.7333 17.3332 16 17.3332H5.33333C4.6 17.3332 4 17.9332 4 18.6665C4 19.3998 4.6 19.9998 5.33333 19.9998ZM4 11.9998C4 12.7332 4.6 13.3332 5.33333 13.3332H26.6667C27.4 13.3332 28 12.7332 28 11.9998C28 11.2665 27.4 10.6665 26.6667 10.6665H5.33333C4.6 10.6665 4 11.2665 4 11.9998Z" fill="#142664"/>
</g>
<defs>
<clipPath id="clip0">
<rect width="32" height="32" fill="white"/>
</clipPath>
</defs>
</svg>
