<svg width="32" height="32" viewBox="0 0 32 32" fill="none" xmlns="http://www.w3.org/2000/svg">
<path d="M23.19 8.40333C22.67 7.88333 21.83 7.88333 21.31 8.40333L14.79 14.91L8.27 8.39C7.75 7.87 6.91 7.87 6.39 8.39C5.87 8.91 5.87 9.75 6.39 10.27L12.91 16.79L6.39 23.31C5.87 23.83 5.87 24.67 6.39 25.19C6.91 25.71 7.75 25.71 8.27 25.19L14.79 18.67L21.31 25.19C21.83 25.71 22.67 25.71 23.19 25.19C23.71 24.67 23.71 23.83 23.19 23.31L16.67 16.79L23.19 10.27C23.6967 9.76333 23.6967 8.91 23.19 8.40333Z" fill="#FF2E93"/>
<path d="M24.4 7.61329C23.88 7.09329 23.04 7.09329 22.52 7.61329L16 14.12L9.47996 7.59996C8.95996 7.07996 8.11996 7.07996 7.59996 7.59996C7.07996 8.11996 7.07996 8.95996 7.59996 9.47996L14.12 16L7.59996 22.52C7.07996 23.04 7.07996 23.88 7.59996 24.4C8.11996 24.92 8.95996 24.92 9.47996 24.4L16 17.88L22.52 24.4C23.04 24.92 23.88 24.92 24.4 24.4C24.92 23.88 24.92 23.04 24.4 22.52L17.88 16L24.4 9.47996C24.9066 8.97329 24.9066 8.11996 24.4 7.61329Z" fill="#142664"/>
</svg>
