<svg width="1042" height="1732" viewBox="0 0 1042 1732" fill="none" xmlns="http://www.w3.org/2000/svg">
<path opacity="0.3" fill-rule="evenodd" clip-rule="evenodd" d="M275.68 1458.71C83.7392 1547.76 -151.693 1513.1 -310.018 1354.77C-484.1 1180.68 -508.673 913.367 -383.695 713.141C-346.833 649.662 -282.604 568.696 -201.906 487.994C-121.208 407.293 -40.2412 343.059 23.2318 306.199C223.454 181.213 490.754 205.79 664.836 379.878C823.16 538.209 857.822 773.647 768.776 965.598C766.655 970.276 764.316 975.114 761.771 980.101C748.303 1006.9 732.364 1032.77 713.953 1057.38C674.014 1113.9 618.918 1178.82 553.907 1243.84C488.898 1308.85 423.976 1363.94 367.457 1403.89C342.853 1422.3 316.98 1438.24 290.179 1451.71C285.198 1454.25 280.358 1456.59 275.68 1458.71Z" stroke="#CDCDCD" stroke-width="1.33333"/>
<path opacity="0.7" fill-rule="evenodd" clip-rule="evenodd" d="M255.307 1337.56C102.595 1408.4 -84.7186 1380.83 -210.685 1254.86C-349.187 1116.35 -368.738 903.669 -269.303 744.365C-239.975 693.861 -188.874 629.442 -124.669 565.235C-60.4638 501.027 3.95445 449.922 54.4546 420.595C213.755 321.154 426.423 340.708 564.925 479.216C690.891 605.187 718.469 792.505 647.622 945.225C645.935 948.947 644.074 952.796 642.049 956.763C631.334 978.087 618.652 998.671 604.004 1018.25C572.228 1063.21 528.393 1114.87 476.669 1166.6C424.947 1218.32 373.294 1262.16 328.326 1293.94C308.751 1308.58 288.165 1321.27 266.842 1331.98C262.88 1334 259.028 1335.87 255.307 1337.56Z" stroke="#CDCDCD" stroke-width="1.33333"/>
<path fill-rule="evenodd" clip-rule="evenodd" d="M238.676 1238.65C117.989 1294.64 -30.0444 1272.85 -129.595 1173.29C-239.053 1063.83 -254.504 895.753 -175.921 769.855C-152.743 729.942 -112.358 679.032 -61.6168 628.289C-10.8758 577.546 40.0338 537.158 79.9439 513.981C205.838 435.393 373.909 450.846 483.367 560.308C582.918 659.863 604.712 807.9 548.722 928.594C547.389 931.535 545.918 934.577 544.317 937.713C535.85 954.565 525.827 970.832 514.251 986.303C489.138 1021.84 454.496 1062.66 413.618 1103.54C372.743 1144.42 331.921 1179.06 296.383 1204.18C280.913 1215.76 264.645 1225.78 247.793 1234.25C244.662 1235.85 241.618 1237.32 238.676 1238.65Z" stroke="#CDCDCD" stroke-width="1.33333"/>
<path fill-rule="evenodd" clip-rule="evenodd" d="M222.967 1145.23C132.527 1187.19 21.5942 1170.86 -53.0065 1096.26C-135.031 1014.23 -146.61 888.274 -87.7217 793.93C-70.353 764.02 -40.0894 725.869 -2.0654 687.844C35.9586 649.818 74.1089 619.552 104.017 602.184C198.359 543.292 324.307 554.873 406.332 636.901C480.932 711.504 497.264 822.44 455.307 912.884C454.308 915.089 453.206 917.368 452.006 919.718C445.661 932.346 438.15 944.537 429.475 956.13C410.656 982.761 384.696 1013.35 354.064 1043.99C323.432 1074.62 292.842 1100.58 266.211 1119.4C254.618 1128.08 242.427 1135.59 229.799 1141.93C227.452 1143.13 225.171 1144.23 222.967 1145.23Z" stroke="#CDCDCD" stroke-width="1.33333"/>
<mask id="mask0" mask-type="alpha" maskUnits="userSpaceOnUse" x="-125" y="565" width="603" height="603">
<path fill-rule="evenodd" clip-rule="evenodd" d="M222.967 1145.23C132.527 1187.19 21.5941 1170.86 -53.0065 1096.26C-135.031 1014.23 -146.61 888.274 -87.7217 793.93C-70.353 764.02 -40.0894 725.869 -2.0654 687.844C35.9586 649.818 74.1089 619.552 104.017 602.184C198.359 543.292 324.307 554.873 406.332 636.901C480.932 711.504 497.264 822.44 455.307 912.885C454.308 915.089 453.206 917.369 452.006 919.718C445.661 932.347 438.15 944.537 429.475 956.13C410.656 982.761 384.696 1013.35 354.064 1043.99C323.432 1074.62 292.842 1100.58 266.211 1119.4C254.618 1128.08 242.427 1135.59 229.799 1141.93C227.452 1143.13 225.171 1144.23 222.967 1145.23Z" fill="#C4C4C4"/>
</mask>
<g mask="url(#mask0)">
<line x1="76.2301" y1="436.088" x2="76.2301" y2="1353.61" stroke="#CDCDCD" stroke-width="1.33333"/>
<line x1="176.721" y1="436.088" x2="176.721" y2="1353.61" stroke="#CDCDCD" stroke-width="1.33333"/>
<line x1="277.211" y1="436.088" x2="277.211" y2="1353.61" stroke="#CDCDCD" stroke-width="1.33333"/>
<line x1="377.703" y1="436.088" x2="377.703" y2="1353.61" stroke="#CDCDCD" stroke-width="1.33333"/>
<line x1="478.193" y1="436.088" x2="478.193" y2="1353.61" stroke="#CDCDCD" stroke-width="1.33333"/>
<line x1="634.817" y1="564.918" x2="-282.708" y2="564.918" stroke="#CDCDCD" stroke-width="1.33333"/>
<line x1="634.817" y1="665.409" x2="-282.708" y2="665.409" stroke="#CDCDCD" stroke-width="1.33333"/>
<line x1="634.817" y1="765.899" x2="-282.708" y2="765.899" stroke="#CDCDCD" stroke-width="1.33333"/>
<line x1="634.817" y1="866.39" x2="-282.708" y2="866.39" stroke="#CDCDCD" stroke-width="1.33333"/>
<line x1="634.817" y1="966.881" x2="-282.708" y2="966.88" stroke="#CDCDCD" stroke-width="1.33333"/>
<line x1="634.817" y1="1067.37" x2="-282.708" y2="1067.37" stroke="#CDCDCD" stroke-width="1.33333"/>
<line x1="634.817" y1="1167.86" x2="-282.708" y2="1167.86" stroke="#CDCDCD" stroke-width="1.33333"/>
</g>
</svg>
