<svg width="911" height="866" viewBox="0 0 911 866" fill="none" xmlns="http://www.w3.org/2000/svg">
<path opacity="0.3" fill-rule="evenodd" clip-rule="evenodd" d="M966.308 592.181C774.442 681.19 539.1 646.544 380.836 488.28C206.821 314.266 182.257 47.066 307.188 -153.076C344.035 -216.528 408.239 -297.46 488.906 -378.127C569.574 -458.795 650.509 -523.001 713.957 -559.846C914.102 -684.779 1181.3 -660.212 1355.31 -486.198C1513.58 -327.934 1548.23 -92.5948 1459.21 99.2747C1457.09 103.951 1454.76 108.787 1452.21 113.771C1438.75 140.561 1422.82 166.422 1404.41 191.016C1364.49 247.511 1309.41 312.408 1244.43 377.395C1179.44 442.378 1114.55 497.452 1058.05 537.379C1033.46 555.783 1007.59 571.719 980.802 585.181C975.823 587.72 970.984 590.061 966.308 592.181Z" stroke="#CDCDCD" stroke-width="1.33333"/>
<path opacity="0.7" fill-rule="evenodd" clip-rule="evenodd" d="M945.943 471.075C793.291 541.891 606.049 514.327 480.131 388.41C341.682 249.961 322.139 37.3718 421.536 -121.865C450.852 -172.348 501.934 -236.739 566.114 -300.919C630.294 -365.099 694.688 -416.183 745.168 -445.497C904.407 -544.896 1116.99 -525.35 1255.44 -386.902C1381.36 -260.984 1408.93 -73.7446 1338.11 78.91C1336.42 82.6304 1334.56 86.478 1332.54 90.4437C1321.83 111.758 1309.15 132.334 1294.51 151.901C1262.74 196.849 1218.92 248.483 1167.22 300.187C1115.52 351.889 1063.88 395.707 1018.93 427.473C999.367 442.116 978.789 454.795 957.474 465.505C953.513 467.525 949.663 469.388 945.943 471.075Z" stroke="#CDCDCD" stroke-width="1.33333"/>
<path fill-rule="evenodd" clip-rule="evenodd" d="M929.319 372.212C808.679 428.178 660.702 406.394 561.19 306.882C451.774 197.467 436.329 29.4585 514.882 -96.3855C538.051 -136.282 578.42 -187.17 629.142 -237.892C679.863 -288.613 730.753 -328.984 770.648 -352.151C896.494 -430.706 1064.5 -415.259 1173.92 -305.844C1273.43 -206.331 1295.21 -58.3566 1239.25 62.2859C1237.91 65.2261 1236.44 68.2668 1234.84 71.4009C1226.38 88.2459 1216.36 104.507 1204.79 119.971C1179.68 155.493 1145.06 196.298 1104.19 237.16C1063.33 278.02 1022.53 312.649 987.004 337.754C971.54 349.326 955.278 359.346 938.433 367.811C935.302 369.407 932.26 370.879 929.319 372.212Z" stroke="#CDCDCD" stroke-width="1.33333"/>
<path fill-rule="evenodd" clip-rule="evenodd" d="M913.615 278.834C823.21 320.774 712.32 304.449 637.748 229.878C555.755 147.884 544.181 21.9832 603.047 -72.3211C620.409 -102.219 650.66 -140.353 688.67 -178.362C726.679 -216.371 764.815 -246.625 794.711 -263.985C889.017 -322.852 1014.92 -311.277 1096.91 -229.284C1171.48 -154.712 1187.81 -43.8231 1145.87 46.5833C1144.87 48.7866 1143.77 51.0652 1142.57 53.4138C1136.22 66.037 1128.72 78.2223 1120.04 89.8107C1101.23 116.43 1075.28 147.009 1044.66 177.63C1014.04 208.249 983.464 234.199 956.843 253.012C945.254 261.684 933.068 269.193 920.444 275.536C918.099 276.732 915.819 277.835 913.615 278.834Z" stroke="#CDCDCD" stroke-width="1.33333"/>
<mask id="mask0" mask-type="alpha" maskUnits="userSpaceOnUse" x="459" y="-408" width="816" height="816">
<path fill-rule="evenodd" clip-rule="evenodd" d="M913.615 278.834C823.21 320.774 712.32 304.449 637.748 229.878C555.755 147.884 544.181 21.9832 603.047 -72.3211C620.409 -102.219 650.66 -140.353 688.67 -178.362C726.679 -216.371 764.815 -246.625 794.711 -263.985C889.017 -322.852 1014.92 -311.277 1096.91 -229.284C1171.48 -154.712 1187.81 -43.8231 1145.87 46.5832C1144.87 48.7865 1143.77 51.0652 1142.57 53.4138C1136.22 66.037 1128.72 78.2223 1120.04 89.8107C1101.23 116.43 1075.28 147.009 1044.66 177.63C1014.04 208.249 983.464 234.199 956.843 253.012C945.254 261.684 933.068 269.193 920.444 275.536C918.099 276.732 915.819 277.835 913.615 278.834Z" fill="#C4C4C4"/>
</mask>
<g mask="url(#mask0)">
<line x1="566.031" y1="-429.764" x2="566.031" y2="487.372" stroke="#CDCDCD" stroke-width="1.33333"/>
<line x1="666.483" y1="-429.764" x2="666.483" y2="487.372" stroke="#CDCDCD" stroke-width="1.33333"/>
<line x1="766.935" y1="-429.764" x2="766.935" y2="487.372" stroke="#CDCDCD" stroke-width="1.33333"/>
<line x1="867.387" y1="-429.764" x2="867.387" y2="487.372" stroke="#CDCDCD" stroke-width="1.33333"/>
<line x1="1325.31" y1="0.355876" x2="408.136" y2="0.355796" stroke="#CDCDCD" stroke-width="1.33333"/>
<line x1="1325.31" y1="100.804" x2="408.136" y2="100.804" stroke="#CDCDCD" stroke-width="1.33333"/>
<line x1="1325.31" y1="201.252" x2="408.136" y2="201.252" stroke="#CDCDCD" stroke-width="1.33333"/>
<line x1="1325.31" y1="301.701" x2="408.136" y2="301.701" stroke="#CDCDCD" stroke-width="1.33333"/>
</g>
</svg>
