<svg width="291" height="245" viewBox="0 0 291 245" fill="none" xmlns="http://www.w3.org/2000/svg">
<path opacity="0.3" fill-rule="evenodd" clip-rule="evenodd" d="M265.373 169.972C212.59 194.458 147.848 184.927 104.309 141.389C56.4378 93.5174 49.6803 20.0105 84.0487 -35.0487C94.1854 -52.5042 111.848 -74.7687 134.04 -96.9603C156.231 -119.152 178.496 -136.815 195.951 -146.951C251.011 -181.32 324.517 -174.562 372.389 -126.691C415.927 -83.1521 425.459 -18.4102 400.972 34.3732C400.389 35.6596 399.745 36.99 399.045 38.3612C395.342 45.7312 390.959 52.8455 385.896 59.6114C374.913 75.1531 359.762 93.0063 341.884 110.884C324.007 128.761 306.154 143.912 290.611 154.896C283.845 159.959 276.73 164.343 269.36 168.046C267.991 168.745 266.659 169.389 265.373 169.972Z" stroke="#CDCDCD"/>
<path opacity="0.7" fill-rule="evenodd" clip-rule="evenodd" d="M259.771 136.655C217.776 156.137 166.266 148.554 131.626 113.914C93.5385 75.8268 88.1621 17.3435 115.506 -26.4625C123.571 -40.3504 137.624 -58.0644 155.28 -75.7205C172.936 -93.3765 190.65 -107.43 204.538 -115.494C248.344 -142.839 306.827 -137.462 344.914 -99.3744C379.554 -64.7344 387.138 -13.2247 367.656 28.7707C367.192 29.7942 366.68 30.8526 366.123 31.9436C363.176 37.8073 359.689 43.4676 355.661 48.8506C346.922 61.2158 334.868 75.4202 320.644 89.6441C306.421 103.867 292.217 115.922 279.851 124.66C274.468 128.689 268.807 132.177 262.943 135.123C261.853 135.679 260.794 136.191 259.771 136.655Z" stroke="#CDCDCD"/>
<path fill-rule="evenodd" clip-rule="evenodd" d="M255.197 109.458C222.009 124.855 181.301 118.862 153.925 91.4862C123.825 61.3859 119.576 15.1667 141.186 -19.4531C147.559 -30.4286 158.665 -44.4279 172.618 -58.3815C186.572 -72.335 200.572 -83.4412 211.547 -89.8144C246.167 -111.425 292.386 -107.175 322.486 -77.075C349.862 -49.6992 355.855 -8.99126 340.458 24.1975C340.092 25.0064 339.687 25.8429 339.247 26.7051C336.918 31.3391 334.162 35.8125 330.979 40.0666C324.073 49.8389 314.547 61.0645 303.306 72.3056C292.065 83.5462 280.839 93.0727 271.067 99.9789C266.812 103.162 262.339 105.919 257.705 108.248C256.843 108.687 256.006 109.092 255.197 109.458Z" stroke="#CDCDCD"/>
<path fill-rule="evenodd" clip-rule="evenodd" d="M250.878 83.7701C226.007 95.3077 195.501 90.8169 174.987 70.3021C152.43 47.7458 149.246 13.1103 165.44 -12.8329C170.216 -21.0577 178.539 -31.5484 188.995 -42.0048C199.452 -52.4612 209.943 -60.7839 218.167 -65.5598C244.111 -81.7541 278.746 -78.5697 301.302 -56.0133C321.817 -35.4986 326.308 -4.99306 314.77 19.8778C314.495 20.4839 314.192 21.1108 313.862 21.7569C312.117 25.2295 310.052 28.5817 307.666 31.7697C302.491 39.0927 295.353 47.5049 286.929 55.9287C278.505 64.3521 270.093 71.491 262.77 76.6664C259.582 79.0521 256.229 81.1178 252.757 82.8628C252.111 83.1919 251.484 83.4953 250.878 83.7701Z" stroke="#CDCDCD"/>
<mask id="mask0" mask-type="alpha" maskUnits="userSpaceOnUse" x="155" y="-76" width="166" height="166">
<path fill-rule="evenodd" clip-rule="evenodd" d="M250.878 83.7701C226.007 95.3077 195.501 90.8169 174.987 70.3021C152.43 47.7457 149.246 13.1103 165.44 -12.8329C170.216 -21.0577 178.539 -31.5484 188.995 -42.0048C199.452 -52.4612 209.943 -60.7839 218.167 -65.5598C244.111 -81.7541 278.746 -78.5697 301.302 -56.0133C321.817 -35.4986 326.308 -4.99307 314.77 19.8778C314.495 20.4839 314.192 21.1108 313.862 21.7569C312.117 25.2295 310.052 28.5817 307.666 31.7697C302.491 39.0927 295.353 47.5049 286.929 55.9287C278.505 64.3521 270.093 71.491 262.77 76.6664C259.582 79.0521 256.229 81.1178 252.757 82.8628C252.111 83.1919 251.484 83.4953 250.878 83.7701Z" fill="#C4C4C4"/>
</mask>
<g mask="url(#mask0)">
<line x1="155.574" y1="-111.17" x2="155.574" y2="141.144" stroke="#CDCDCD"/>
<line x1="183.208" y1="-111.17" x2="183.208" y2="141.144" stroke="#CDCDCD"/>
<line x1="210.843" y1="-111.17" x2="210.843" y2="141.144" stroke="#CDCDCD"/>
<line x1="238.478" y1="-111.17" x2="238.478" y2="141.144" stroke="#CDCDCD"/>
<line x1="266.112" y1="-111.17" x2="266.112" y2="141.144" stroke="#CDCDCD"/>
<line x1="364.135" y1="7.47705" x2="111.821" y2="7.47703" stroke="#CDCDCD"/>
<line x1="364.135" y1="35.1113" x2="111.821" y2="35.1113" stroke="#CDCDCD"/>
<line x1="364.135" y1="62.7458" x2="111.821" y2="62.7458" stroke="#CDCDCD"/>
<line x1="364.135" y1="90.3804" x2="111.821" y2="90.3803" stroke="#CDCDCD"/>
</g>
</svg>
