<svg width="1021" height="1731" viewBox="0 0 1021 1731" fill="none" xmlns="http://www.w3.org/2000/svg">
<path opacity="0.3" fill-rule="evenodd" clip-rule="evenodd" d="M765.654 1458.16C957.595 1547.21 1193.03 1512.55 1351.35 1354.22C1525.43 1180.13 1550.01 912.819 1425.03 712.592C1388.17 649.114 1323.94 568.147 1243.24 487.446C1162.54 406.744 1081.58 342.51 1018.1 305.65C817.88 180.664 550.58 205.241 376.499 379.329C218.174 537.66 183.512 773.099 272.558 965.05C274.679 969.728 277.018 974.566 279.563 979.552C293.03 1006.35 308.97 1032.23 327.381 1056.83C367.32 1113.35 422.415 1178.27 487.427 1243.29C552.436 1308.3 617.358 1363.4 673.877 1403.34C698.481 1421.75 724.354 1437.69 751.155 1451.16C756.135 1453.7 760.976 1456.04 765.654 1458.16Z" stroke="#CDCDCD" stroke-width="1.33333"/>
<path opacity="0.7" fill-rule="evenodd" clip-rule="evenodd" d="M786.027 1337.01C938.738 1407.85 1126.05 1380.28 1252.02 1254.31C1390.52 1115.8 1410.07 903.12 1310.64 743.817C1281.31 693.312 1230.21 628.894 1166 564.686C1101.8 500.479 1037.38 449.373 986.879 420.047C827.579 320.606 614.91 340.16 476.408 478.667C350.442 604.638 322.865 791.957 393.711 944.676C395.398 948.398 397.259 952.247 399.285 956.215C409.999 977.539 422.681 998.123 437.329 1017.7C469.105 1062.67 512.94 1114.32 564.664 1166.05C616.386 1217.77 668.04 1261.61 713.007 1293.39C732.582 1308.04 753.168 1320.72 774.491 1331.44C778.453 1333.46 782.305 1335.32 786.027 1337.01Z" stroke="#CDCDCD" stroke-width="1.33333"/>
<path fill-rule="evenodd" clip-rule="evenodd" d="M802.657 1238.1C923.344 1294.09 1071.38 1272.3 1170.93 1172.75C1280.39 1063.28 1295.84 895.204 1217.25 769.306C1194.08 729.393 1153.69 678.483 1102.95 627.74C1052.21 576.997 1001.3 536.609 961.39 513.432C835.495 434.844 667.424 450.298 557.966 559.76C458.416 659.314 436.622 807.351 492.611 928.045C493.945 930.986 495.415 934.029 497.016 937.164C505.484 954.016 515.506 970.284 527.083 985.754C552.195 1021.29 586.838 1062.11 627.715 1102.99C668.591 1143.87 709.412 1178.51 744.95 1203.63C760.42 1215.21 776.689 1225.23 793.54 1233.7C796.672 1235.3 799.716 1236.77 802.657 1238.1Z" stroke="#CDCDCD" stroke-width="1.33333"/>
<path fill-rule="evenodd" clip-rule="evenodd" d="M818.366 1144.68C908.806 1186.64 1019.74 1170.31 1094.34 1095.71C1176.36 1013.68 1187.94 887.724 1129.05 793.38C1111.69 763.47 1081.42 725.319 1043.4 687.294C1005.37 649.269 967.224 619.002 937.316 601.634C842.974 542.743 717.026 554.323 635.001 636.351C560.401 710.954 544.069 821.89 586.026 912.335C587.025 914.539 588.127 916.818 589.327 919.168C595.672 931.797 603.183 943.987 611.858 955.58C630.677 982.211 656.637 1012.8 687.269 1043.44C717.901 1074.07 748.491 1100.03 775.122 1118.85C786.715 1127.53 798.906 1135.04 811.534 1141.38C813.881 1142.58 816.162 1143.68 818.366 1144.68Z" stroke="#CDCDCD" stroke-width="1.33333"/>
<mask id="mask0" mask-type="alpha" maskUnits="userSpaceOnUse" x="563" y="564" width="603" height="604">
<path fill-rule="evenodd" clip-rule="evenodd" d="M818.366 1144.68C908.806 1186.64 1019.74 1170.31 1094.34 1095.71C1176.36 1013.68 1187.94 887.724 1129.05 793.38C1111.69 763.47 1081.42 725.319 1043.4 687.294C1005.37 649.268 967.224 619.002 937.316 601.634C842.974 542.743 717.026 554.323 635.001 636.351C560.401 710.954 544.069 821.89 586.026 912.335C587.025 914.539 588.127 916.818 589.327 919.168C595.672 931.797 603.183 943.987 611.858 955.58C630.677 982.211 656.637 1012.8 687.269 1043.44C717.901 1074.07 748.491 1100.03 775.122 1118.85C786.715 1127.53 798.906 1135.04 811.534 1141.38C813.881 1142.58 816.162 1143.68 818.366 1144.68Z" fill="#C4C4C4"/>
</mask>
<g mask="url(#mask0)">
<line y1="-0.666667" x2="917.525" y2="-0.666667" transform="matrix(4.37114e-08 1 1 -4.37114e-08 965.77 435.638)" stroke="#CDCDCD" stroke-width="1.33333"/>
<line y1="-0.666667" x2="917.525" y2="-0.666667" transform="matrix(4.37114e-08 1 1 -4.37114e-08 865.279 435.638)" stroke="#CDCDCD" stroke-width="1.33333"/>
<line y1="-0.666667" x2="917.525" y2="-0.666667" transform="matrix(4.37114e-08 1 1 -4.37114e-08 764.788 435.638)" stroke="#CDCDCD" stroke-width="1.33333"/>
<line y1="-0.666667" x2="917.525" y2="-0.666667" transform="matrix(4.37114e-08 1 1 -4.37114e-08 664.297 435.638)" stroke="#CDCDCD" stroke-width="1.33333"/>
<line y1="-0.666667" x2="917.525" y2="-0.666667" transform="matrix(4.37114e-08 1 1 -4.37114e-08 563.806 435.638)" stroke="#CDCDCD" stroke-width="1.33333"/>
<line y1="-0.666667" x2="917.525" y2="-0.666667" transform="matrix(1 -8.74228e-08 -8.74228e-08 -1 406.516 563.8)" stroke="#CDCDCD" stroke-width="1.33333"/>
<line y1="-0.666667" x2="917.525" y2="-0.666667" transform="matrix(1 -8.74228e-08 -8.74228e-08 -1 406.516 664.291)" stroke="#CDCDCD" stroke-width="1.33333"/>
<line y1="-0.666667" x2="917.525" y2="-0.666667" transform="matrix(1 -8.74228e-08 -8.74228e-08 -1 406.516 764.782)" stroke="#CDCDCD" stroke-width="1.33333"/>
<line y1="-0.666667" x2="917.525" y2="-0.666667" transform="matrix(1 -8.74228e-08 -8.74228e-08 -1 406.516 865.273)" stroke="#CDCDCD" stroke-width="1.33333"/>
<line y1="-0.666667" x2="917.525" y2="-0.666667" transform="matrix(1 -8.74228e-08 -8.74228e-08 -1 406.516 965.764)" stroke="#CDCDCD" stroke-width="1.33333"/>
<line y1="-0.666667" x2="917.525" y2="-0.666667" transform="matrix(1 -8.74228e-08 -8.74228e-08 -1 406.516 1066.25)" stroke="#CDCDCD" stroke-width="1.33333"/>
<line y1="-0.666667" x2="917.525" y2="-0.666667" transform="matrix(1 -8.74228e-08 -8.74228e-08 -1 406.516 1166.74)" stroke="#CDCDCD" stroke-width="1.33333"/>
</g>
</svg>
