<svg width="866" height="1732" viewBox="0 0 866 1732" fill="none" xmlns="http://www.w3.org/2000/svg">
<path opacity="0.3" fill-rule="evenodd" clip-rule="evenodd" d="M99.3082 1458.57C-92.5585 1547.58 -327.9 1512.93 -486.164 1354.67C-660.179 1180.65 -684.743 913.453 -559.812 713.311C-522.965 649.859 -458.761 568.927 -378.094 488.26C-297.426 407.592 -216.491 343.386 -153.043 306.541C47.1023 181.608 314.299 206.175 488.314 380.189C646.578 538.453 681.226 773.792 592.214 965.661C590.095 970.338 587.756 975.174 585.212 980.158C571.75 1006.95 555.817 1032.81 537.412 1057.4C497.489 1113.9 442.415 1178.79 377.428 1243.78C312.444 1308.77 247.547 1363.84 191.05 1403.77C166.456 1422.17 140.592 1438.11 113.802 1451.57C108.823 1454.11 103.984 1456.45 99.3082 1458.57Z" stroke="#CDCDCD" stroke-width="1.33333"/>
<path opacity="0.7" fill-rule="evenodd" clip-rule="evenodd" d="M78.9432 1337.46C-73.7091 1408.28 -260.951 1380.71 -386.869 1254.8C-525.317 1116.35 -544.861 903.758 -445.464 744.522C-416.148 694.039 -365.066 629.647 -300.886 565.467C-236.706 501.287 -172.312 450.203 -121.831 420.889C37.4073 321.49 249.994 341.036 388.443 479.484C514.36 605.402 541.927 792.642 471.108 945.296C469.421 949.017 467.561 952.864 465.536 956.83C454.826 978.145 442.149 998.72 427.506 1018.29C395.742 1063.24 351.924 1114.87 300.22 1166.57C248.518 1218.28 196.885 1262.09 151.934 1293.86C132.367 1308.5 111.789 1321.18 90.4746 1331.89C86.5135 1333.91 82.6635 1335.77 78.9432 1337.46Z" stroke="#CDCDCD" stroke-width="1.33333"/>
<path fill-rule="evenodd" clip-rule="evenodd" d="M62.3197 1238.6C-58.321 1294.57 -206.298 1272.78 -305.81 1173.27C-415.225 1063.85 -430.671 895.845 -352.118 770.001C-328.949 730.104 -288.579 679.216 -237.858 628.495C-187.136 577.773 -136.247 537.402 -96.3518 514.235C29.4941 435.68 197.501 451.127 306.916 560.543C406.428 660.055 428.214 808.03 372.246 928.672C370.913 931.613 369.443 934.653 367.843 937.788C359.378 954.632 349.36 970.893 337.788 986.357C312.685 1021.88 278.056 1062.69 237.194 1103.55C196.334 1144.41 155.529 1179.04 120.004 1204.14C104.54 1215.71 88.2778 1225.73 71.4329 1234.2C68.3025 1235.79 65.2598 1237.27 62.3197 1238.6Z" stroke="#CDCDCD" stroke-width="1.33333"/>
<path fill-rule="evenodd" clip-rule="evenodd" d="M46.6157 1145.22C-43.7893 1187.16 -154.679 1170.84 -229.251 1096.26C-311.244 1014.27 -322.819 888.37 -263.953 794.066C-246.591 764.168 -216.339 726.034 -178.33 688.025C-140.32 650.015 -102.185 619.762 -72.2886 602.401C22.0171 543.534 147.917 555.11 229.91 637.103C304.482 711.675 320.808 822.564 278.867 912.97C277.868 915.173 276.766 917.452 275.567 919.8C269.224 932.424 261.716 944.609 253.044 956.197C234.233 982.817 208.283 1013.4 177.662 1044.02C147.043 1074.64 116.464 1100.59 89.8432 1119.4C78.2548 1128.07 66.0681 1135.58 53.4449 1141.92C51.0991 1143.12 48.819 1144.22 46.6157 1145.22Z" stroke="#CDCDCD" stroke-width="1.33333"/>
<mask id="mask0" mask-type="alpha" maskUnits="userSpaceOnUse" x="-408" y="458" width="816" height="816">
<path fill-rule="evenodd" clip-rule="evenodd" d="M46.6157 1145.22C-43.7893 1187.16 -154.679 1170.84 -229.251 1096.26C-311.244 1014.27 -322.819 888.37 -263.953 794.065C-246.591 764.168 -216.339 726.034 -178.33 688.024C-140.32 650.015 -102.185 619.762 -72.2886 602.401C22.0171 543.534 147.917 555.11 229.91 637.103C304.482 711.675 320.808 822.563 278.867 912.97C277.868 915.173 276.766 917.452 275.567 919.8C269.224 932.423 261.716 944.609 253.044 956.197C234.233 982.817 208.283 1013.4 177.662 1044.02C147.043 1074.64 116.464 1100.59 89.8432 1119.4C78.2548 1128.07 66.0681 1135.58 53.4449 1141.92C51.0991 1143.12 48.819 1144.22 46.6157 1145.22Z" fill="#C4C4C4"/>
</mask>
<g mask="url(#mask0)">
<line x1="0.389323" y1="436.569" x2="0.389283" y2="1353.71" stroke="#CDCDCD" stroke-width="1.33333"/>
<line x1="100.842" y1="436.569" x2="100.842" y2="1353.71" stroke="#CDCDCD" stroke-width="1.33333"/>
<line x1="201.295" y1="436.569" x2="201.295" y2="1353.71" stroke="#CDCDCD" stroke-width="1.33333"/>
<line x1="301.746" y1="436.569" x2="301.746" y2="1353.71" stroke="#CDCDCD" stroke-width="1.33333"/>
<line x1="458.31" y1="565.345" x2="-458.862" y2="565.345" stroke="#CDCDCD" stroke-width="1.33333"/>
<line x1="458.31" y1="665.793" x2="-458.862" y2="665.793" stroke="#CDCDCD" stroke-width="1.33333"/>
<line x1="458.31" y1="766.241" x2="-458.862" y2="766.241" stroke="#CDCDCD" stroke-width="1.33333"/>
<line x1="458.31" y1="866.689" x2="-458.862" y2="866.689" stroke="#CDCDCD" stroke-width="1.33333"/>
<line x1="458.31" y1="967.138" x2="-458.862" y2="967.138" stroke="#CDCDCD" stroke-width="1.33333"/>
<line x1="458.31" y1="1067.59" x2="-458.862" y2="1067.59" stroke="#CDCDCD" stroke-width="1.33333"/>
<line x1="458.31" y1="1168.03" x2="-458.862" y2="1168.03" stroke="#CDCDCD" stroke-width="1.33333"/>
</g>
</svg>
