<svg width="31" height="28" viewBox="0 0 31 28" fill="none" xmlns="http://www.w3.org/2000/svg">
<path d="M2.74695 12.2807C2.74695 12.2807 16.0521 6.47779 20.6665 4.43444C22.4355 3.61716 28.4343 1.00166 28.4343 1.00166C28.4343 1.00166 31.203 -0.142522 30.9723 2.63632C30.8953 3.78062 30.2801 7.78543 29.6648 12.1173C28.7419 18.2472 27.7421 24.9492 27.7421 24.9492C27.7421 24.9492 27.5883 26.8291 26.2809 27.156C24.9735 27.4829 22.8199 26.0118 22.4355 25.6848C22.1278 25.4397 16.6673 21.7617 14.6677 19.9636C14.1293 19.4732 13.5141 18.4925 14.7446 17.3482C17.5133 14.651 20.8203 11.3 22.8199 9.17497C23.7429 8.19413 24.6657 5.90564 20.8203 8.68449C15.3599 12.6894 9.97632 16.4491 9.97632 16.4491C9.97632 16.4491 8.74576 17.2664 6.43854 16.5308C4.13121 15.7953 1.43942 14.8144 1.43942 14.8144C1.43942 14.8144 -0.406267 13.5885 2.74695 12.2807Z" fill="#3D48A9"/>
</svg>
