<svg width="37" height="20" viewBox="0 0 37 20" fill="none" xmlns="http://www.w3.org/2000/svg">
<path fill-rule="evenodd" clip-rule="evenodd" d="M30.2028 9.5385C30.2028 9.5385 34.8469 3.4375 35.3072 1.43324C35.4613 0.717285 35.1222 0.317252 34.3229 0.317252C34.3229 0.317252 31.6495 0.317252 30.2953 0.317252C29.3726 0.317252 29.0357 0.688563 28.7583 1.2322C28.7583 1.2322 26.5804 5.55459 23.9313 8.27891C23.0814 9.15898 22.6498 9.42362 22.1785 9.42362C21.7998 9.42362 21.6258 9.13026 21.6258 8.33635V1.3758C21.6258 0.403414 21.5025 0.116211 20.6415 0.116211H14.1873C13.694 0.116211 13.3857 0.382899 13.3857 0.746005C13.3857 1.663 14.8941 1.8702 14.8941 4.3545V9.48106C14.8941 10.5129 14.8325 10.913 14.3084 10.913C12.9255 10.913 9.63564 6.47364 7.79031 1.43324C7.42257 0.403414 7.02177 0.116211 5.97799 0.116211H1.95045C1.3647 0.116211 0.935303 0.487521 0.935303 1.03321C0.935303 2.03431 2.19489 6.67468 7.14511 12.8906C10.4658 17.0714 14.8325 19.3341 18.7676 19.3341C21.1656 19.3341 21.7491 18.9628 21.7491 18.0171V14.8087C21.7491 14.0065 22.0882 13.664 22.5793 13.664C23.132 13.664 24.1097 13.8281 26.3911 15.9267C29.0974 18.331 29.2824 19.3341 30.7577 19.3341H35.2764C35.7388 19.3341 36.1682 19.1331 36.1682 18.4171C36.1682 17.4735 34.8469 15.7831 32.8166 13.7788C31.9865 12.747 30.6344 11.6289 30.2028 11.114C29.5884 10.5129 29.7734 10.1683 30.2028 9.5385Z" fill="#3D48A9"/>
</svg>
