<svg width="328" height="104" viewBox="0 0 328 104" fill="none" xmlns="http://www.w3.org/2000/svg">
<path d="M296 8H-28.6863C-30.808 8 -32.8429 8.84285 -34.3431 10.3431L-45.6569 21.6569C-47.1571 23.1571 -48 25.192 -48 27.3137V96C-48 100.418 -44.4183 104 -40 104H284.686C286.808 104 288.843 103.157 290.343 101.657L301.657 90.3431C303.157 88.8429 304 86.808 304 84.6863V16C304 11.5817 300.418 8 296 8Z" fill="#142664"/>
<path d="M327 8V76.6863C327 78.5428 326.262 80.3233 324.95 81.636L313.636 92.9498C312.323 94.2625 310.543 95 308.686 95H-16C-19.866 95 -23 91.866 -23 88V19.3137C-23 17.4572 -22.2625 15.6767 -20.9497 14.364L-9.63603 3.05025C-8.32328 1.7375 -6.5428 1 -4.68629 1H320C323.866 1 327 4.13401 327 8Z" fill="white" stroke="#142664" stroke-width="2"/>
</svg>
