<svg width="15" height="15" viewBox="0 0 15 15" fill="none" xmlns="http://www.w3.org/2000/svg">
<path d="M13.3925 1.3025C13.0025 0.9125 12.3725 0.9125 11.9825 1.3025L7.0925 6.1825L2.2025 1.2925C1.8125 0.9025 1.1825 0.9025 0.7925 1.2925C0.4025 1.6825 0.4025 2.3125 0.7925 2.7025L5.6825 7.5925L0.7925 12.4825C0.4025 12.8725 0.4025 13.5025 0.7925 13.8925C1.1825 14.2825 1.8125 14.2825 2.2025 13.8925L7.0925 9.0025L11.9825 13.8925C12.3725 14.2825 13.0025 14.2825 13.3925 13.8925C13.7825 13.5025 13.7825 12.8725 13.3925 12.4825L8.5025 7.5925L13.3925 2.7025C13.7725 2.3225 13.7725 1.6825 13.3925 1.3025Z" fill="#FF2E93"/>
<path d="M14.3 0.710001C13.91 0.320001 13.28 0.320001 12.89 0.710001L7.99997 5.59L3.10997 0.700001C2.71997 0.310001 2.08997 0.310001 1.69997 0.700001C1.30997 1.09 1.30997 1.72 1.69997 2.11L6.58997 7L1.69997 11.89C1.30997 12.28 1.30997 12.91 1.69997 13.3C2.08997 13.69 2.71997 13.69 3.10997 13.3L7.99997 8.41L12.89 13.3C13.28 13.69 13.91 13.69 14.3 13.3C14.69 12.91 14.69 12.28 14.3 11.89L9.40997 7L14.3 2.11C14.68 1.73 14.68 1.09 14.3 0.710001Z" fill="white"/>
</svg>
