<svg width="29" height="34" viewBox="0 0 29 34" fill="none" xmlns="http://www.w3.org/2000/svg">
<path d="M14.1667 0.333252C6.35 0.333252 0 6.68325 0 14.4999C0 22.3166 6.35 28.6666 14.1667 28.6666H15V33.6666C23.1 29.7666 28.3333 21.9999 28.3333 14.4999C28.3333 6.68325 21.9833 0.333252 14.1667 0.333252ZM15.8333 24.4999H12.5V21.1666H15.8333V24.4999ZM15.8333 18.6666H12.5C12.5 13.2499 17.5 13.6666 17.5 10.3333C17.5 8.49992 16 6.99992 14.1667 6.99992C12.3333 6.99992 10.8333 8.49992 10.8333 10.3333H7.5C7.5 6.64992 10.4833 3.66659 14.1667 3.66659C17.85 3.66659 20.8333 6.64992 20.8333 10.3333C20.8333 14.4999 15.8333 14.9166 15.8333 18.6666Z" fill="white"/>
</svg>
