<svg width="29" height="34" viewBox="0 0 29 34" fill="none" xmlns="http://www.w3.org/2000/svg">
<path d="M14.1667 0.333374C6.35 0.333374 0 6.68337 0 14.5C0 22.3167 6.35 28.6667 14.1667 28.6667H15V33.6667C23.1 29.7667 28.3333 22 28.3333 14.5C28.3333 6.68337 21.9833 0.333374 14.1667 0.333374ZM15.8333 24.5H12.5V21.1667H15.8333V24.5ZM15.8333 18.6667H12.5C12.5 13.25 17.5 13.6667 17.5 10.3334C17.5 8.50004 16 7.00004 14.1667 7.00004C12.3333 7.00004 10.8333 8.50004 10.8333 10.3334H7.5C7.5 6.65004 10.4833 3.66671 14.1667 3.66671C17.85 3.66671 20.8333 6.65004 20.8333 10.3334C20.8333 14.5 15.8333 14.9167 15.8333 18.6667Z" fill="#FF2E93"/>
</svg>
