<svg width="32" height="32" viewBox="0 0 32 32" fill="none" xmlns="http://www.w3.org/2000/svg">
<g clip-path="url(#clip0)">
<path d="M12.4172 20.1812L12.0202 25.7652C12.5882 25.7652 12.8342 25.5212 13.1292 25.2282L15.7922 22.6832L21.3102 26.7242C22.3222 27.2882 23.0352 26.9912 23.3082 25.7932L26.9302 8.82116L26.9312 8.82016C27.2522 7.32416 26.3902 6.73916 25.4042 7.10616L4.11418 15.2572C2.66118 15.8212 2.68318 16.6312 3.86718 16.9982L9.31018 18.6912L21.9532 10.7802C22.5482 10.3862 23.0892 10.6042 22.6442 10.9982L12.4172 20.1812Z" fill="#FF2E93"/>
</g>
<g clip-path="url(#clip1)">
<path d="M13.4172 19.1812L13.0202 24.7652C13.5882 24.7652 13.8342 24.5212 14.1292 24.2282L16.7922 21.6832L22.3102 25.7242C23.3222 26.2882 24.0352 25.9912 24.3082 24.7932L27.9302 7.82116L27.9312 7.82016C28.2522 6.32416 27.3902 5.73916 26.4042 6.10616L5.11418 14.2572C3.66118 14.8212 3.68318 15.6312 4.86718 15.9982L10.3102 17.6912L22.9532 9.78016C23.5482 9.38616 24.0892 9.60416 23.6442 9.99816L13.4172 19.1812Z" fill="#142664"/>
</g>
<defs>
<clipPath id="clip0">
<rect width="24" height="24" fill="white" transform="translate(3 5)"/>
</clipPath>
<clipPath id="clip1">
<rect width="24" height="24" fill="white" transform="translate(4 4)"/>
</clipPath>
</defs>
</svg>
